# xmcd CD database file
#
# Track frame offsets:
#	150
#	17695
#	32137
#	64041
#	84544
#	93589
#	128915
#	138038
#	169123
#	179600
#	205431
#	222525
#	243972
#
# Disc length: 3735 seconds
#
# Revision: 0
# Processed by: cddbd v1.5.2PL0 Copyright (c) Steve Scherf et al.
# Submitted via: CDex 1.50
#
DISCID=b90e950d
DTITLE=Peter Fulda Trio - Little Box Of Sea Wonders
DYEAR=2003
DGENRE=Jazz
TTITLE0=01-Mater Suspiriorum
TTITLE1=02-Little Box Of Sea Wonders
TTITLE2=03-Eronel
TTITLE3=04-Tango
TTITLE4=05-War Of The Seaweed
TTITLE5=06-For Real Moments
TTITLE6=07-Revenge Of The Seaweed
TTITLE7=08-The Reptile
TTITLE8=09-Coral Scents
TTITLE9=10-Nardis
TTITLE10=11-Dead Sea
TTITLE11=12-Israel
TTITLE12=13-The Unhappy Harpy
EXTD=YEAR: 2003
EXTT0=
EXTT1=
EXTT2=
EXTT3=
EXTT4=
EXTT5=
EXTT6=
EXTT7=
EXTT8=
EXTT9=
EXTT10=
EXTT11=
EXTT12=
PLAYORDER=
